<?xml version="1.0" encoding="UTF-8"?>
<svg xmlns="http://www.w3.org/2000/svg" viewBox="0 0 160 150" width="360" height="338">
  <defs>
    <linearGradient id="rcSoil" x1="0" y1="58" x2="0" y2="148">
      <stop offset="0%" stop-color="#d4c4b0"/>
      <stop offset="55%" stop-color="#b8a48c"/>
      <stop offset="100%" stop-color="#9a8670"/>
    </linearGradient>
    <linearGradient id="rcPot" x1="50" y1="42" x2="110" y2="62">
      <stop offset="0%" stop-color="#d4b896"/>
      <stop offset="100%" stop-color="#c4a882"/>
    </linearGradient>
    <radialGradient id="rcGlow" cx="50%" cy="40%" r="55%">
      <stop offset="0%" stop-color="#9caf88" stop-opacity="0.35"/>
      <stop offset="100%" stop-color="#9caf88" stop-opacity="0"/>
    </radialGradient>
  </defs>
  <rect x="0" y="0" width="160" height="58" fill="#f5f0e8"/>
  <ellipse cx="80" cy="58" rx="70" ry="18" fill="url(#rcGlow)"/>
  <text x="80" y="12" text-anchor="middle" font-family="sans-serif" font-size="8" fill="#8ba4b4">뿌리 Lv.1</text>

  <g transform="translate(80,50) scale(1,0.7) translate(-80,-50)">
    <path d="M80 50 C79 40 79 30 80 20" stroke="#7a9168" stroke-width="3.2" stroke-linecap="round" fill="none"/>
  </g>
  <g transform="translate(68,32) scale(0.88) translate(-68,-32)">
    <ellipse cx="68" cy="32" rx="11" ry="6.5" fill="#9caf88" transform="rotate(-32 68 32)"/>
  </g>
  <g transform="translate(92,30) scale(0.88) translate(-92,-30)">
    <ellipse cx="92" cy="30" rx="11" ry="6.5" fill="#8fad7a" transform="rotate(34 92 30)"/>
  </g>
  <g opacity="0">
    <ellipse cx="80" cy="18" rx="7" ry="4.5" fill="#b5c9a0" transform="rotate(-8 80 18)"/>
  </g>
  <g opacity="0.5">
    <ellipse cx="77.2" cy="22" rx="0.9" ry="1.05" fill="#5a4638"/>
    <ellipse cx="82.8" cy="22" rx="0.9" ry="1.05" fill="#5a4638"/>
    <path d="M78 24.2c1 1 3 1 4 0" stroke="#5a4638" stroke-width="0.75" stroke-linecap="round" fill="none"/>
  </g>

  <ellipse cx="80" cy="50" rx="18" ry="4" fill="#a88968"/>
  <path d="M64 50 L67 62 Q80 66 93 62 L96 50 Z" fill="url(#rcPot)"/>
  <rect x="62" y="47" width="36" height="6.5" rx="2.5" fill="#d4b896"/>
  <ellipse cx="80" cy="47.5" rx="18" ry="3.5" fill="#8a6f52"/>
  <ellipse cx="80" cy="46.5" rx="12" ry="2.2" fill="#5c4a3a" opacity="0.45"/>

  <path d="M8 58 Q80 54 152 58" stroke="#b8a894" stroke-width="2" stroke-linecap="round" opacity="0.7" fill="none"/>
  <path d="M0 58 L160 58 L160 150 L0 150 Z" fill="url(#rcSoil)"/>
  <circle cx="28" cy="78" r="1.2" fill="#a89884" opacity="0.35"/>
  <circle cx="120" cy="92" r="1.4" fill="#a89884" opacity="0.3"/>
  <circle cx="48" cy="118" r="1.1" fill="#a89884" opacity="0.28"/>
  <circle cx="132" cy="128" r="1.3" fill="#a89884" opacity="0.32"/>

  <g transform="translate(80,58) scale(1,0.75) translate(-80,-58)">
    <path d="M80 58 C78 78 76 98 74 122" stroke="#5a6b4a" stroke-width="3.15" stroke-linecap="round" fill="none"/>
    <path d="M80 62 C70 78 58 92 42 108" stroke="#5a6b4a" stroke-width="2.45" stroke-linecap="round" fill="none" opacity="0.9"/>
    <path d="M80 62 C90 80 104 94 122 110" stroke="#5a6b4a" stroke-width="2.45" stroke-linecap="round" fill="none" opacity="0.9"/>
    <g opacity="1">
      <path d="M72 86 C60 92 50 96 38 100" stroke="#4a5a3c" stroke-width="1.8" stroke-linecap="round" fill="none"/>
      <circle cx="38" cy="100" r="2.2" fill="#6d8a5e" opacity="0.55"/>
    </g>
    <g opacity="0">
      <path d="M88 90 C102 98 114 104 128 112" stroke="#4a5a3c" stroke-width="1.8" stroke-linecap="round" fill="none"/>
      <circle cx="128" cy="112" r="2.2" fill="#6d8a5e" opacity="0.55"/>
    </g>
    <g opacity="0">
      <path d="M76 104 C64 112 52 120 40 128" stroke="#4a5a3c" stroke-width="1.6" stroke-linecap="round" fill="none"/>
      <circle cx="40" cy="128" r="2" fill="#8fad7a" opacity="0.5"/>
    </g>
    <g opacity="0">
      <path d="M84 108 C98 118 112 126 126 134" stroke="#4a5a3c" stroke-width="1.6" stroke-linecap="round" fill="none"/>
      <circle cx="126" cy="134" r="2" fill="#8fad7a" opacity="0.5"/>
      <path d="M74 122 C70 132 66 138 60 142 M74 122 C80 134 86 140 94 144" stroke="#3d4a32" stroke-width="1.4" stroke-linecap="round" fill="none" opacity="0.85"/>
    </g>
  </g>
</svg>
